<svg width="41" height="41" viewBox="0 0 41 41" fill="none" xmlns="http://www.w3.org/2000/svg">
<path d="M35.6385 4.44119H34.2533V3.09353C34.2533 1.38703 32.7432 0 30.885 0C29.0255 0 27.5167 1.38703 27.5167 3.09353V4.44006H24.0601V3.09353C24.0601 1.38703 22.55 0 20.6918 0C18.8335 0 17.3234 1.38703 17.3234 3.09353V4.44006H13.8668V3.09353C13.8668 1.38703 12.3568 0 10.4985 0C8.64028 0 7.13022 1.38703 7.13022 3.09353V4.44006H5.36154C2.40575 4.44006 0 6.58529 0 9.22098V36.2191C0 38.8548 2.40575 41 5.36154 41H35.6385C38.5955 41 41 38.8548 41 36.2191V9.22098C41 6.58641 38.5942 4.44119 35.6385 4.44119ZM29.409 3.09353C29.409 2.31846 30.0713 1.68738 30.885 1.68738C31.6999 1.68738 32.361 2.31846 32.361 3.09353V8.60115C32.361 9.37622 31.6999 10.0073 30.885 10.0073C30.0713 10.0073 29.409 9.37622 29.409 8.60115V3.09353ZM19.2158 3.09353C19.2158 2.31846 19.8781 1.68738 20.6918 1.68738C21.5054 1.68738 22.1678 2.31846 22.1678 3.09353V8.60115C22.1678 9.37622 21.5054 10.0073 20.6918 10.0073C19.8781 10.0073 19.2158 9.37622 19.2158 8.60115V3.09353ZM9.02126 3.09353C9.02126 2.31846 9.68357 1.68738 10.4973 1.68738C11.311 1.68738 11.9733 2.31846 11.9733 3.09353V8.60115C11.9733 9.37622 11.311 10.0073 10.4973 10.0073C9.68357 10.0073 9.02126 9.37622 9.02126 8.60115V3.09353ZM37.8462 36.2202C37.8462 37.3058 36.8558 38.1888 35.6385 38.1888H5.36154C4.14415 38.1888 3.15385 37.3058 3.15385 36.2202V11.4719H37.8462V36.2202Z" fill="#242424"/>
<path d="M11.7897 16.4531H5.99292V21.0529H11.7897V16.4531Z" fill="#242424"/>
<path d="M19.5281 16.4531H13.7301V21.0529H19.5281V16.4531Z" fill="#242424"/>
<path d="M27.2702 16.4531H21.4734V21.0529H27.2702V16.4531Z" fill="#242424"/>
<path d="M35.0082 16.4531H29.2102V21.0529H35.0082V16.4531Z" fill="#242424"/>
<path d="M11.7897 22.593H5.99292V27.1894H11.7897V22.593Z" fill="#242424"/>
<path d="M19.5281 22.593H13.7301V27.1894H19.5281V22.593Z" fill="#242424"/>
<path d="M27.2702 22.593H21.4734V27.1894H27.2702V22.593Z" fill="#242424"/>
<path d="M35.0082 22.593H29.2102V27.1894H35.0082V22.593Z" fill="#242424"/>
<path d="M11.7897 28.7305H5.99292V33.3269H11.7897V28.7305Z" fill="#242424"/>
<path d="M19.5281 28.7305H13.7301V33.3269H19.5281V28.7305Z" fill="#242424"/>
<path d="M27.2702 28.7305H21.4734V33.3269H27.2702V28.7305Z" fill="#242424"/>
<path d="M35.0082 28.7305H29.2102V33.3269H35.0082V28.7305Z" fill="#242424"/>
</svg>
