<svg width="41" height="51" viewBox="0 0 41 51" fill="none" xmlns="http://www.w3.org/2000/svg">
<path d="M35.7818 6.62751H31.0606V4.58023C31.0606 3.91786 30.3152 3.61681 29.6319 3.61681H25.9668C25.0971 1.2082 22.9228 0.00389883 20.438 0.00389883C17.9805 -0.0856546 15.7452 1.37498 14.9092 3.61681H11.3062C10.6229 3.61681 9.93951 3.91786 9.93951 4.58023V6.62751H5.2182C2.4204 6.65644 0.131507 8.79581 0 11.5049V46.0081C0 48.6576 2.48485 50.5844 5.2182 50.5844H35.7818C38.5151 50.5844 41 48.6576 41 46.0081V11.505C40.8685 8.79581 38.5796 6.65644 35.7818 6.62751ZM12.4242 6.02542H15.8409C16.4374 5.95488 16.9164 5.51507 17.0213 4.94156C17.3892 3.3886 18.7947 2.27385 20.438 2.2319C22.066 2.27973 23.4504 3.39794 23.7925 4.94156C23.9039 5.53489 24.4146 5.98035 25.0349 6.02542H28.5759V10.8426H12.4242V6.02542ZM38.5152 46.0082C38.5152 47.3329 37.1485 48.1759 35.7818 48.1759H5.2182C3.85153 48.1759 2.48485 47.3329 2.48485 46.0082V11.505C2.6116 10.1261 3.79017 9.06147 5.2182 9.03623H9.93939V12.1072C10.005 12.7819 10.6079 13.2866 11.3061 13.2514H29.6317C30.3428 13.289 30.9645 12.7913 31.0605 12.1072V9.03612H35.7817C37.2096 9.06147 38.3883 10.126 38.515 11.5049V46.0082H38.5152Z" fill="#FBF6EF"/>
<path d="M15.7167 26.9201C15.2507 26.4439 14.4771 26.4171 13.9772 26.8599L10.0015 30.533L8.32421 28.8469C7.85822 28.3708 7.08464 28.344 6.58477 28.7867C6.10356 29.2754 6.10356 30.0443 6.58477 30.533L9.13168 33.062C9.35213 33.3013 9.67055 33.4336 10.0013 33.4233C10.329 33.4189 10.6416 33.289 10.871 33.062L15.7164 28.6061C16.1968 28.179 16.2289 27.4552 15.7881 26.9897C15.7656 26.9654 15.7417 26.9422 15.7167 26.9201Z" fill="#FBF6EF"/>
<path d="M33.5455 29.5093H19.2576C18.5714 29.5093 18.0152 30.0484 18.0152 30.7136C18.0152 31.3787 18.5714 31.9179 19.2576 31.9179H33.5455C34.2316 31.9179 34.7879 31.3787 34.7879 30.7136C34.7879 30.0484 34.2316 29.5093 33.5455 29.5093Z" fill="#FBF6EF"/>
<path d="M15.7167 17.2856C15.2507 16.8095 14.4771 16.7827 13.9772 17.2255L10.0015 20.8985L8.32421 19.2125C7.85822 18.7364 7.08464 18.7095 6.58477 19.1523C6.10356 19.641 6.10356 20.4099 6.58477 20.8985L9.13168 23.4276C9.35213 23.6669 9.67055 23.7992 10.0013 23.7889C10.329 23.7844 10.6416 23.6545 10.871 23.4276L15.7164 18.9717C16.1968 18.5446 16.2289 17.8208 15.7881 17.3553C15.7656 17.3309 15.7417 17.3078 15.7167 17.2856Z" fill="#FBF6EF"/>
<path d="M33.5455 19.8748H19.2576C18.5714 19.8748 18.0152 20.414 18.0152 21.0792C18.0152 21.7443 18.5714 22.2835 19.2576 22.2835H33.5455C34.2316 22.2835 34.7879 21.7443 34.7879 21.0792C34.7879 20.414 34.2316 19.8748 33.5455 19.8748Z" fill="#FBF6EF"/>
<path d="M15.7167 36.5544C15.2507 36.0783 14.4771 36.0515 13.9772 36.4942L10.0015 40.1673L8.32421 38.4812C7.85822 38.0051 7.08464 37.9784 6.58477 38.4211C6.10356 38.9097 6.10356 39.6786 6.58477 40.1673L9.13168 42.6963C9.35213 42.9356 9.67055 43.0679 10.0013 43.0577C10.329 43.0532 10.6416 42.9233 10.871 42.6963L15.7164 38.2404C16.1968 37.8133 16.2289 37.0895 15.7881 36.624C15.7656 36.5998 15.7417 36.5766 15.7167 36.5544Z" fill="#FBF6EF"/>
<path d="M33.5455 39.1437H19.2576C18.5714 39.1437 18.0152 39.6829 18.0152 40.348C18.0152 41.0131 18.5714 41.5523 19.2576 41.5523H33.5455C34.2316 41.5523 34.7879 41.0131 34.7879 40.348C34.7879 39.6829 34.2316 39.1437 33.5455 39.1437Z" fill="#FBF6EF"/>
</svg>
