<svg width="29" height="29" viewBox="0 0 29 29" fill="none" xmlns="http://www.w3.org/2000/svg">
<path d="M14.5 29C6.5046 29 0 22.4954 0 14.5C0 6.5046 6.5046 0 14.5 0C22.4954 0 29 6.5046 29 14.5C29 22.4954 22.4954 29 14.5 29ZM14.5 2.07137C7.64693 2.07137 2.07137 7.64693 2.07137 14.5C2.07137 21.3531 7.64693 26.9286 14.5 26.9286C21.3531 26.9286 26.9286 21.3531 26.9286 14.5C26.9286 7.64693 21.3531 2.07137 14.5 2.07137Z" fill="#FF0000"/>
<path d="M19.6782 20.7154C19.4131 20.7154 19.1481 20.6142 18.9458 20.4118L8.58878 10.0548C8.18411 9.65008 8.18411 8.99473 8.58878 8.59029C8.99323 8.18584 9.6488 8.18561 10.0533 8.59029L20.4103 18.9473C20.815 19.352 20.815 20.0074 20.4103 20.4118C20.2081 20.6142 19.9432 20.7154 19.6782 20.7154Z" fill="#FF0000"/>
<path d="M9.32091 20.7145C9.05585 20.7145 8.79101 20.6134 8.58878 20.4109C8.18411 20.0065 8.18411 19.3509 8.58878 18.9464L18.9458 8.58939C19.3505 8.18472 20.0059 8.18472 20.4103 8.58939C20.8147 8.99384 20.815 9.64941 20.4103 10.0539L10.0533 20.4109C9.85103 20.6134 9.58597 20.7145 9.32091 20.7145Z" fill="#FF0000"/>
</svg>
