<svg width="41" height="41" viewBox="0 0 41 41" fill="none" xmlns="http://www.w3.org/2000/svg">
<path d="M34.9957 6.00426C31.1238 2.13232 25.9757 0 20.5 0C15.0243 0 9.8762 2.13232 6.00426 6.00426C2.1324 9.8762 0 15.0243 0 20.5C0 25.9757 2.1324 31.1238 6.00426 34.9957C9.8762 38.8677 15.0243 41 20.5 41C25.9757 41 31.1238 38.8677 34.9957 34.9957C38.8676 31.1238 41 25.9757 41 20.5C41 15.0243 38.8676 9.8762 34.9957 6.00426ZM20.5 38.5977C10.5209 38.5977 2.40234 30.4791 2.40234 20.5C2.40234 10.5209 10.5209 2.40234 20.5 2.40234C30.4791 2.40234 38.5977 10.5209 38.5977 20.5C38.5977 30.4791 30.4791 38.5977 20.5 38.5977Z" fill="#FBF6EF"/>
<path d="M21.7866 19.2988H19.2134C17.7474 19.2988 16.5548 18.1062 16.5548 16.6403C16.5548 15.1743 17.7475 13.9817 19.2134 13.9817H24.3598C25.0231 13.9817 25.5609 13.4439 25.5609 12.7805C25.5609 12.1172 25.0231 11.5794 24.3598 11.5794H21.7012V8.92078C21.7012 8.25742 21.1634 7.71961 20.5 7.71961C19.8366 7.71961 19.2988 8.25742 19.2988 8.92078V11.5794H19.2135C16.4228 11.5794 14.1525 13.8498 14.1525 16.6403C14.1525 19.4309 16.4229 21.7012 19.2135 21.7012H21.7867C23.2526 21.7012 24.4452 22.8939 24.4452 24.3598C24.4452 25.8257 23.2526 27.0184 21.7867 27.0184H16.6403C15.9769 27.0184 15.4391 27.5562 15.4391 28.2195C15.4391 28.8829 15.9769 29.4207 16.6403 29.4207H19.2988V32.0794C19.2988 32.7427 19.8366 33.2805 20.5 33.2805C21.1634 33.2805 21.7012 32.7427 21.7012 32.0794V29.4207H21.7866C24.5772 29.4207 26.8475 27.1503 26.8475 24.3598C26.8475 21.5692 24.5772 19.2988 21.7866 19.2988Z" fill="#FBF6EF"/>
</svg>
