<svg width="41" height="38" viewBox="0 0 41 38" fill="none" xmlns="http://www.w3.org/2000/svg">
<path d="M32.0794 19.2988C27.1606 19.2988 23.1588 23.3005 23.1588 28.2194C23.1588 33.1383 27.1606 37.1403 32.0794 37.1403C36.9983 37.1403 41 33.1386 41 28.2194C41 23.3005 36.998 19.2988 32.0794 19.2988ZM34.6526 29.4206H33.2806V30.7925C33.2806 31.456 32.7429 31.9937 32.0794 31.9937C31.416 31.9937 30.8783 31.456 30.8783 30.7925V29.4206H29.5063C28.8428 29.4206 28.3051 28.8829 28.3051 28.2194C28.3051 27.5563 28.8428 27.0182 29.5063 27.0182H30.8783V25.6463C30.8783 24.9831 31.416 24.4451 32.0794 24.4451C32.7429 24.4451 33.2806 24.9831 33.2806 25.6463V27.0182H34.6526C35.316 27.0182 35.8537 27.5563 35.8537 28.2194C35.8537 28.8829 35.316 29.4206 34.6526 29.4206Z" fill="#FBF6EF"/>
<path d="M12.7806 17.8415C17.6995 17.8415 21.7012 13.8394 21.7012 8.92058C21.7012 4.00172 17.6991 0 12.7806 0C7.86173 0 3.8597 4.00172 3.8597 8.92058C3.8597 13.8398 7.86173 17.8415 12.7806 17.8415Z" fill="#FBF6EF"/>
<path d="M23.339 21.0286C22.4366 19.7077 21.2933 18.5628 19.9723 17.66C18.0154 19.2735 15.5092 20.2438 12.7806 20.2438C10.052 20.2438 7.5458 19.2735 5.58858 17.66C2.21748 19.9635 0 23.8373 0 28.2194V32.7225C0 35.1587 1.98162 37.1403 4.41743 37.1403H21.1431C22.2179 37.1403 23.2039 36.7543 23.9706 36.114C21.983 34.0726 20.7562 31.2868 20.7562 28.2194C20.7562 25.4914 21.7262 22.9855 23.339 21.0286Z" fill="#FBF6EF"/>
</svg>
