<svg width="24" height="22" viewBox="0 0 24 22" fill="none" xmlns="http://www.w3.org/2000/svg">
<path d="M18.7782 11.2969C15.8989 11.2969 13.5564 13.6393 13.5564 16.5187C13.5564 19.398 15.8989 21.7407 18.7782 21.7407C21.6575 21.7407 24 19.3982 24 16.5187C24 13.6393 21.6573 11.2969 18.7782 11.2969ZM20.2844 17.2218H19.4813V18.0249C19.4813 18.4133 19.1666 18.728 18.7782 18.728C18.3898 18.728 18.0751 18.4133 18.0751 18.0249V17.2218H17.272C16.8836 17.2218 16.5688 16.907 16.5688 16.5187C16.5688 16.1305 16.8836 15.8156 17.272 15.8156H18.0751V15.0125C18.0751 14.6243 18.3898 14.3093 18.7782 14.3093C19.1666 14.3093 19.4813 14.6243 19.4813 15.0125V15.8156H20.2844C20.6728 15.8156 20.9875 16.1305 20.9875 16.5187C20.9875 16.907 20.6728 17.2218 20.2844 17.2218Z" fill="#42783A"/>
<path d="M7.48132 10.4438C10.3607 10.4438 12.7031 8.10114 12.7031 5.2218C12.7031 2.34247 10.3605 0 7.48132 0C4.60199 0 2.25934 2.34247 2.25934 5.2218C2.25934 8.10132 4.60199 10.4438 7.48132 10.4438Z" fill="#42783A"/>
<path d="M13.6619 12.3094C13.1336 11.5362 12.4644 10.866 11.6911 10.3376C10.5456 11.282 9.07855 11.85 7.48132 11.85C5.88409 11.85 4.41705 11.282 3.27136 10.3376C1.29803 11.686 0 13.9536 0 16.5187V19.1547C0 20.5807 1.15997 21.7407 2.58582 21.7407H12.3765C13.0056 21.7407 13.5828 21.5147 14.0316 21.1399C12.8681 19.9449 12.15 18.3142 12.15 16.5187C12.15 14.9218 12.7178 13.455 13.6619 12.3094Z" fill="#42783A"/>
</svg>
