<svg width="358" height="282" viewBox="0 0 358 282" fill="none" xmlns="http://www.w3.org/2000/svg">
<path d="M111.971 156.384C113.155 155.008 114.884 154.32 117.156 154.32C119.428 154.32 121.155 155.008 122.34 156.384C123.555 157.76 124.163 159.616 124.163 161.952V165.024C124.163 167.36 123.555 169.216 122.34 170.592C121.155 171.968 119.428 172.656 117.156 172.656C114.884 172.656 113.155 171.968 111.971 170.592C110.787 169.216 110.196 167.36 110.196 165.024V161.952C110.196 159.616 110.787 157.76 111.971 156.384Z" fill="#242424"/>
<path d="M161.268 157.536C161.268 156.672 160.98 155.952 160.404 155.376C159.828 154.8 159.124 154.512 158.292 154.512H151.332V160.608H158.292C159.124 160.608 159.828 160.32 160.404 159.744C160.98 159.136 161.268 158.4 161.268 157.536Z" fill="#242424"/>
<path d="M242.612 156.384C243.796 155.008 245.524 154.32 247.796 154.32C250.068 154.32 251.796 155.008 252.98 156.384C254.196 157.76 254.804 159.616 254.804 161.952V165.024C254.804 167.36 254.196 169.216 252.98 170.592C251.796 171.968 250.068 172.656 247.796 172.656C245.524 172.656 243.796 171.968 242.612 170.592C241.428 169.216 240.836 167.36 240.836 165.024V161.952C240.836 159.616 241.428 157.76 242.612 156.384Z" fill="#242424"/>
<path fill-rule="evenodd" clip-rule="evenodd" d="M358 0H0V282H358V0ZM95.4192 94.9761H123.979V102.896H106.027V107.456H121.387V115.04H106.027V120.08H124.315V128H95.4192V94.9761ZM139.036 128L127.324 94.9761H138.652L145.276 117.056H145.468L152.14 94.9761H162.988L151.324 128H139.036ZM195.979 94.9761H167.419V128H196.315V120.08H178.027V115.04H193.387V107.456H178.027V102.896H195.979V94.9761ZM225.676 128L211.804 111.968V128H202.06V94.9761H211.324L225.196 111.248V94.9761H234.94V128H225.676ZM261.052 128V103.424H271.852V94.9761H239.596V103.424H250.444V128H261.052ZM83.0271 180V167.472H71.3631V180H60.7551V146.976H71.3631V159.024H83.0271V146.976H93.6351V180H83.0271ZM130.355 150.768C127.251 147.856 122.852 146.4 117.156 146.4C111.46 146.4 107.06 147.856 103.956 150.768C100.884 153.648 99.3475 157.888 99.3475 163.488C99.3475 169.088 100.884 173.344 103.956 176.256C107.06 179.136 111.46 180.576 117.156 180.576C122.852 180.576 127.251 179.12 130.355 176.208C133.46 173.296 135.012 169.056 135.012 163.488C135.012 157.92 133.46 153.68 130.355 150.768ZM172.068 157.104C172.068 159.12 171.524 160.944 170.436 162.576C169.348 164.208 167.764 165.408 165.684 166.176L173.028 180H161.124L155.268 167.952H151.332V180H140.724V146.976H160.932C163.3 146.976 165.316 147.44 166.98 148.368C168.676 149.264 169.94 150.496 170.772 152.064C171.636 153.6 172.068 155.28 172.068 157.104ZM189.171 146.976H178.563V180H189.171V146.976ZM210.66 172.08H226.355V180H194.339V176.592L209.652 154.896H195.492V146.976H225.971V150.384L210.66 172.08ZM260.996 150.768C257.892 147.856 253.492 146.4 247.796 146.4C242.1 146.4 237.7 147.856 234.596 150.768C231.524 153.648 229.988 157.888 229.988 163.488C229.988 169.088 231.524 173.344 234.596 176.256C237.7 179.136 242.1 180.576 247.796 180.576C253.492 180.576 257.892 179.12 260.996 176.208C264.1 173.296 265.652 169.056 265.652 163.488C265.652 157.92 264.1 153.68 260.996 150.768ZM294.98 180L281.109 163.968V180H271.365V146.976H280.628L294.5 163.248V146.976H304.245V180H294.98ZM273.148 132.8H91.8672V135.2H273.148V132.8ZM307.797 184.8H57.2031V187.2H307.797V184.8Z" fill="#242424"/>
</svg>
